<svg width="48" height="48" viewBox="0 0 48 48" fill="none" xmlns="http://www.w3.org/2000/svg">
<path d="M42 43L39 40M30 15C30 12.3478 28.9464 9.8043 27.0711 7.92893C25.1957 6.05357 22.6522 5 20 5C17.3478 5 14.8043 6.05357 12.9289 7.92893C11.0536 9.8043 10 12.3478 10 15C10 17.6522 11.0536 20.1957 12.9289 22.0711C14.8043 23.9464 17.3478 25 20 25C22.6522 25 25.1957 23.9464 27.0711 22.0711C28.9464 20.1957 30 17.6522 30 15ZM40 35C40 33.4087 39.3679 31.8826 38.2426 30.7574C37.1174 29.6321 35.5913 29 34 29C32.4087 29 30.8826 29.6321 29.7574 30.7574C28.6321 31.8826 28 33.4087 28 35C28 36.5913 28.6321 38.1174 29.7574 39.2426C30.8826 40.3679 32.4087 41 34 41C35.5913 41 37.1174 40.3679 38.2426 39.2426C39.3679 38.1174 40 36.5913 40 35Z" stroke="#091019" stroke-width="2" stroke-linecap="round" stroke-linejoin="round"/>
<path d="M6 39C5.99951 36.6379 6.59667 34.3141 7.73587 32.2449C8.87508 30.1758 10.5193 28.4285 12.5155 27.1657C14.5116 25.9029 16.7949 25.1657 19.1526 25.0227C21.5103 24.8798 23.8659 25.3357 26 26.348" stroke="#091019" stroke-width="2" stroke-linecap="round" stroke-linejoin="round"/>
</svg>
